<?xml version="1.0" encoding="utf-8"?>
<!-- Generator: Adobe Illustrator 24.0.2, SVG Export Plug-In . SVG Version: 6.00 Build 0)  -->
<svg version="1.1" id="Layer_1" xmlns="http://www.w3.org/2000/svg" xmlns:xlink="http://www.w3.org/1999/xlink" x="0px" y="0px"
	 viewBox="0 0 50 69" style="enable-background:new 0 0 50 69;" xml:space="preserve">
<style type="text/css">
	.st0{fill:#81E294;}
	.st1{fill-rule:evenodd;clip-rule:evenodd;fill:#F3F3F3;}
	.st2{fill:#F7685B;}
	.st3{fill:#168DE2;}
	.st4{fill:#FFFFFF;}
	.st5{fill:#FFE21F;}
	.st6{fill:#454545;}
	.st7{fill:#ED6262;}
	.st8{fill:#FFBD49;}
	.st9{fill:#FFDB6F;}
	.st10{fill:#6F6F6F;}
	.st11{fill:#777777;}
	.st12{fill:#3AA2EB;}
</style>
<title>Group 15</title>
<desc>Created with Sketch.</desc>
<g id="Symbols">
	<g id="dashboard_view" transform="translate(-982.000000, -552.000000)">
		<g id="Group-15" transform="translate(982.000000, 552.000000)">
			<g id="maps-and-flags">
				<path id="Shape" class="st0" d="M25,0C11.3,0,0.1,11.2,0.1,24.9C0.1,42,22.4,67,23.3,68.1c0.9,1,2.4,1,3.3,0
					C27.6,67,49.9,42,49.9,24.9C49.9,11.2,38.7,0,25,0z M25,37.5c-6.9,0-12.5-5.6-12.5-12.5S18.1,12.4,25,12.4S37.5,18,37.5,24.9
					S31.9,37.5,25,37.5z"/>
			</g>
			<g id="Group-9" transform="translate(3.000000, 3.000000)">
				<circle id="Oval-Copy-6" class="st1" cx="22" cy="22" r="22"/>
				<g id="car" transform="translate(4.693333, 5.866667)">
					<path id="Path" class="st2" d="M34.5,15c-0.1-1-0.4-2-1.1-2.9c-1.4-1.9-1.7-3.3-1.7-3.3c-1.1-2.9-2.1-4.9-2.9-6.1
						c-0.8-1.3-2.1-2.2-3.6-2.4c-3-0.4-12.5-0.4-15.5,0C8.2,0.5,6.9,1.4,6.1,2.7C5.4,3.9,4.4,5.9,3.3,8.8c0,0-0.3,1.5-1.7,3.3
						C0.9,13,0.5,14,0.5,15c-0.1,2.3,0.5,2.7,1.1,7.8c0,0.4,0.4,0.7,0.8,0.7h30.1c0.4,0,0.7-0.3,0.8-0.7c0.2-1.4,0.6-4.3,0.6-4.3
						C34.4,17.1,34.5,15.9,34.5,15z"/>
					<path id="Path_1_" class="st3" d="M31.1,8.7c-0.9-2.2-1.8-4.1-2.7-5.7c-0.7-1.2-1.9-2-3.2-2.2c-3-0.4-12.4-0.4-15.4,0
						C8.5,1.1,7.3,1.9,6.6,3C5.7,4.6,4.8,6.6,3.9,8.7C12.9,9.4,22,9.4,31.1,8.7z"/>
					<path id="Path_2_" class="st4" d="M29.8,11.3c-0.3,0.1-0.7,0.3-0.9,0.4c-0.5,0.3-1,0.5-1.5,0.7c-0.9,0.3-1,0.8-1,0.8
						c0,0-0.1,0.1-0.1,0.1c-0.7,1,0.2,2.3,1.4,2.1c1.7-0.2,3.1-0.7,3.8-1c0.4-0.2,0.7-0.5,0.8-0.9c0,0,0-0.1,0-0.1
						C32.5,12,31.1,10.9,29.8,11.3z"/>
					<path id="Path_3_" class="st5" d="M31.6,19.1h-1.9c-0.3,0-0.4,0.3-0.2,0.5l1.9,1.9c0.2,0.2,0.5,0.1,0.5-0.2v-1.9
						C31.9,19.3,31.8,19.1,31.6,19.1z"/>
					<path id="Path_4_" class="st6" d="M33.3,22.9c0,0.4-0.4,0.7-0.8,0.7h-3.6v2.1c0,0.7,0.6,1.3,1.3,1.3h2.3c0.7,0,1.3-0.6,1.3-1.3
						v-6.6C33.7,20,33.5,21.8,33.3,22.9z"/>
					<path id="Path_5_" class="st7" d="M34.9,7.3c-0.1-0.5-0.6-0.8-1.1-0.8h-0.9c-0.6,0-1.1,0.5-1.1,1.1v0.6h-0.5l0.3,0.7h1.1
						c0.5,0,1.1-0.1,1.6-0.3C34.8,8.2,35,7.8,34.9,7.3z"/>
					<circle id="Oval" class="st8" cx="30.4" cy="13" r="1.3"/>
					<circle id="Oval_1_" class="st9" cx="27.7" cy="14" r="1"/>
					<polygon id="Path_6_" class="st10" points="25.2,14 23.7,16.7 11.3,16.7 9.8,14 					"/>
					<path id="Path_7_" class="st4" d="M8.7,13.4c0,0,0-0.1-0.1-0.1c0,0-0.1-0.5-1-0.8c-0.5-0.2-1-0.5-1.5-0.7
						c-0.3-0.2-0.6-0.3-0.9-0.4c-1.4-0.4-2.7,0.7-2.5,2.1c0,0,0,0.1,0,0.1c0.1,0.4,0.4,0.8,0.8,0.9c0.7,0.3,2.1,0.8,3.8,1
						C8.5,15.6,9.4,14.3,8.7,13.4z"/>
					<path id="Path_8_" class="st5" d="M5.3,19.1H3.4c-0.2,0-0.3,0.1-0.3,0.3v1.9c0,0.3,0.3,0.4,0.5,0.2l1.9-1.9
						C5.7,19.5,5.5,19.1,5.3,19.1z"/>
					<path id="Path_9_" class="st11" d="M30,22.4c-2-3.4-4.2-3.3-4.2-3.3H9.2c0,0-2.3-0.1-4.2,3.3H1.6l0,0.4c0,0.4,0.4,0.7,0.8,0.7
						h30.2c0.4,0,0.8-0.3,0.8-0.7l0-0.4L30,22.4L30,22.4z"/>
					<path id="Path_10_" class="st6" d="M2.4,23.6c-0.4,0-0.7-0.3-0.8-0.7c-0.1-1-0.4-2.9-0.6-3.8v6.6c0,0.7,0.6,1.3,1.3,1.3h2.3
						C5.4,27,6,26.4,6,25.7v-2.1L2.4,23.6L2.4,23.6z"/>
					<path id="Path_11_" class="st7" d="M3.1,8.1V7.5c0-0.6-0.5-1.1-1.1-1.1H1.1c-0.5,0-1,0.3-1.1,0.8c-0.1,0.5,0.1,1,0.6,1.2
						c0.5,0.2,1,0.3,1.6,0.3h1.1l0.3-0.7L3.1,8.1L3.1,8.1z"/>
					<circle id="Oval_2_" class="st8" cx="4.6" cy="13" r="1.3"/>
					<circle id="Oval_3_" class="st9" cx="7.3" cy="14" r="1"/>
					<g id="Group" transform="translate(9.996800, 20.064000)">
						<path id="Path_12_" class="st10" d="M14.5,0H0.4C0.2,0,0,0.2,0,0.4c0,0.2,0.2,0.4,0.4,0.4h14.1c0.2,0,0.4-0.2,0.4-0.4
							C14.9,0.2,14.7,0,14.5,0z"/>
						<path id="Path_13_" class="st10" d="M14.5,1.6H0.4C0.2,1.6,0,1.8,0,2c0,0.2,0.2,0.4,0.4,0.4h14.1c0.2,0,0.4-0.2,0.4-0.4
							C14.9,1.8,14.7,1.6,14.5,1.6z"/>
					</g>
					<path id="Path_14_" class="st12" d="M29.6,5.4v0.1c0,0.5-0.5,1-1,1c-0.5,0-0.9-0.5-0.9-1v-2c0-0.5-0.4-0.8-0.8-0.8c0,0,0,0,0,0
						c0,0,0,0,0,0c-0.5,0-0.8,0.3-0.8,0.8v1.8c0,0.5-0.5,1-1,1c-0.5,0-0.9-0.5-0.9-1V3.6c0-0.5-0.4-0.8-0.9-0.8h-0.1
						c-0.4,0-0.8,0.4-0.8,0.8v2c0,0.5-0.5,1-1,1c-0.5,0-0.9-0.5-0.9-1V2.9c0-0.4-0.4-0.8-0.8-0.8h-0.1c-0.5,0-0.8,0.4-0.8,0.8v2.7
						c0,0.5-0.4,1-1,1c-0.5,0-0.9-0.4-1-0.9V3.4c0-0.5-0.4-1-0.9-1c-0.6,0-1,0.4-1,1l0,2.1c0,0.5-0.4,1-1,1c-0.5,0-0.9-0.5-0.9-1
						V2.9c0-0.5-0.4-1-0.9-1c-0.6,0-1,0.4-1,1v2.6c0,0.5-0.5,1-1,0.9C9.4,6.4,9,6,9,5.4v-2C9,3,8.6,2.7,8.2,2.7c0,0,0,0,0,0
						c0,0,0,0,0,0C7.7,2.7,7.3,3,7.3,3.5v1.8c0,0.5-0.5,1-1,1c-0.5,0-0.8-0.4-0.9-0.9c-0.5,1.1-1,2.2-1.5,3.4c9,0.7,18.1,0.7,27.2,0
						C30.6,7.5,30.1,6.4,29.6,5.4z"/>
				</g>
			</g>
		</g>
	</g>
</g>
</svg>
